# xmcd
#
# Track frame offsets: 
#        150
#        25471
#        46153
#        62559
#        79927
#        109473
#        130295
#        146523
#        162662
#        181781
#        203151
#
# Disc length: 2994 seconds
#
# Revision: 0
# Processed by: cddbd v1.5.2PL0 Copyright (c) Steve Scherf et al.
# Submitted via: ExactAudioCopyFreeDBPlugin 1.0
#
DISCID=9c0bb00b
DTITLE=Eric Ramsey - Road of Man
DYEAR=2018
DGENRE=Blues
TTITLE0=Road of Man
TTITLE1=Everybody's Just a Heartbeat Away
TTITLE2=Warp and Weft
TTITLE3=Never Trust This Weary World
TTITLE4=Around Here
TTITLE5=Cocoon
TTITLE6=The Rest Is Up To You
TTITLE7=Sharecropper
TTITLE8=Rain Don't Follow The Plow
TTITLE9=I Love My Baby
TTITLE10='Til The Next You Comes Around
EXTD=
EXTT0=
EXTT1=
EXTT2=
EXTT3=
EXTT4=
EXTT5=
EXTT6=
EXTT7=
EXTT8=
EXTT9=
EXTT10=
PLAYORDER=
